{
    "asset" : {
        "generator" : "Khronos glTF Blender I/O v3.2.43",
        "version" : "2.0"
    },
    "scene" : 0,
    "scenes" : [
        {
            "name" : "Scene",
            "nodes" : [
                0,
                1,
                2,
                3,
                4,
                5,
                6
            ]
        }
    ],
    "nodes" : [
        {
            "mesh" : 0,
            "name" : "Power",
            "translation" : [
                -0.0020270966924726963,
                0.13903892040252686,
                0.226742222905159
            ]
        },
        {
            "mesh" : 1,
            "name" : "Screen",
            "translation" : [
                -0.0016403773333877325,
                0,
                0
            ]
        },
        {
            "mesh" : 2,
            "name" : "VolDown",
            "rotation" : [
                -1,
                0,
                0,
                1.9470718370939721e-07
            ],
            "translation" : [
                -0.00034819322172552347,
                0.09016309678554535,
                -0.22509723901748657
            ]
        },
        {
            "mesh" : 3,
            "name" : "VolUp",
            "rotation" : [
                -1,
                0,
                0,
                1.9470718370939721e-07
            ],
            "translation" : [
                -0.00034819322172552347,
                0.15834645926952362,
                -0.22509723901748657
            ]
        },
        {
            "mesh" : 4,
            "name" : "Glass",
            "translation" : [
                -0.005024367477744818,
                0,
                0
            ]
        },
        {
            "mesh" : 5,
            "name" : "Phone"
        },
        {
            "mesh" : 6,
            "name" : "logo",
            "rotation" : [
                0.5000000596046448,
                0.4999999403953552,
                -0.5,
                0.5
            ],
            "scale" : [
                0.005637927446514368,
                0.0030139267910271883,
                0.005637927446514368
            ],
            "translation" : [
                0.030919205397367477,
                0,
                0
            ]
        }
    ],
    "meshes" : [
        {
            "name" : "Cube.002",
            "primitives" : [
                {
                    "attributes" : {
                        "POSITION" : 0,
                        "NORMAL" : 1,
                        "TEXCOORD_0" : 2
                    },
                    "indices" : 3
                }
            ]
        },
        {
            "name" : "Plane.001",
            "primitives" : [
                {
                    "attributes" : {
                        "POSITION" : 4,
                        "NORMAL" : 5,
                        "TEXCOORD_0" : 6
                    },
                    "indices" : 7
                }
            ]
        },
        {
            "name" : "Cube.004",
            "primitives" : [
                {
                    "attributes" : {
                        "POSITION" : 8,
                        "NORMAL" : 9,
                        "TEXCOORD_0" : 10
                    },
                    "indices" : 3
                }
            ]
        },
        {
            "name" : "Cube.005",
            "primitives" : [
                {
                    "attributes" : {
                        "POSITION" : 11,
                        "NORMAL" : 12,
                        "TEXCOORD_0" : 13
                    },
                    "indices" : 3
                }
            ]
        },
        {
            "name" : "Plane.002",
            "primitives" : [
                {
                    "attributes" : {
                        "POSITION" : 14,
                        "NORMAL" : 15,
                        "TEXCOORD_0" : 16
                    },
                    "indices" : 7
                }
            ]
        },
        {
            "name" : "Cube.001",
            "primitives" : [
                {
                    "attributes" : {
                        "POSITION" : 17,
                        "NORMAL" : 18,
                        "TEXCOORD_0" : 19
                    },
                    "indices" : 20
                }
            ]
        },
        {
            "name" : "test2",
            "primitives" : [
                {
                    "attributes" : {
                        "POSITION" : 21,
                        "NORMAL" : 22,
                        "TEXCOORD_0" : 23
                    },
                    "indices" : 24
                }
            ]
        }
    ],
    "accessors" : [
        {
            "bufferView" : 0,
            "componentType" : 5126,
            "count" : 125,
            "max" : [
                0.01055822242051363,
                0.06141197681427002,
                0.007615778595209122
            ],
            "min" : [
                -0.01055822242051363,
                -0.06141197681427002,
                -0.007615804672241211
            ],
            "type" : "VEC3"
        },
        {
            "bufferView" : 1,
            "componentType" : 5126,
            "count" : 125,
            "type" : "VEC3"
        },
        {
            "bufferView" : 2,
            "componentType" : 5126,
            "count" : 125,
            "type" : "VEC2"
        },
        {
            "bufferView" : 3,
            "componentType" : 5123,
            "count" : 348,
            "type" : "SCALAR"
        },
        {
            "bufferView" : 4,
            "componentType" : 5126,
            "count" : 20,
            "max" : [
                -0.0220529455691576,
                0.42093604803085327,
                0.19939075410366058
            ],
            "min" : [
                -0.022053008899092674,
                -0.42093604803085327,
                -0.19939075410366058
            ],
            "type" : "VEC3"
        },
        {
            "bufferView" : 5,
            "componentType" : 5126,
            "count" : 20,
            "type" : "VEC3"
        },
        {
            "bufferView" : 6,
            "componentType" : 5126,
            "count" : 20,
            "type" : "VEC2"
        },
        {
            "bufferView" : 7,
            "componentType" : 5123,
            "count" : 54,
            "type" : "SCALAR"
        },
        {
            "bufferView" : 8,
            "componentType" : 5126,
            "count" : 125,
            "max" : [
                0.01055822242051363,
                0.003573209047317505,
                0.007615797221660614
            ],
            "min" : [
                -0.01055822242051363,
                -0.06141197681427002,
                -0.007615804672241211
            ],
            "type" : "VEC3"
        },
        {
            "bufferView" : 9,
            "componentType" : 5126,
            "count" : 125,
            "type" : "VEC3"
        },
        {
            "bufferView" : 10,
            "componentType" : 5126,
            "count" : 125,
            "type" : "VEC2"
        },
        {
            "bufferView" : 11,
            "componentType" : 5126,
            "count" : 125,
            "max" : [
                0.01055822242051363,
                0.003573209047317505,
                0.007615797221660614
            ],
            "min" : [
                -0.01055822242051363,
                -0.06141197681427002,
                -0.007615804672241211
            ],
            "type" : "VEC3"
        },
        {
            "bufferView" : 12,
            "componentType" : 5126,
            "count" : 125,
            "type" : "VEC3"
        },
        {
            "bufferView" : 13,
            "componentType" : 5126,
            "count" : 125,
            "type" : "VEC2"
        },
        {
            "bufferView" : 14,
            "componentType" : 5126,
            "count" : 20,
            "max" : [
                -0.0220529455691576,
                0.42093604803085327,
                0.19939075410366058
            ],
            "min" : [
                -0.022053008899092674,
                -0.42093604803085327,
                -0.19939075410366058
            ],
            "type" : "VEC3"
        },
        {
            "bufferView" : 15,
            "componentType" : 5126,
            "count" : 20,
            "type" : "VEC3"
        },
        {
            "bufferView" : 16,
            "componentType" : 5126,
            "count" : 20,
            "type" : "VEC2"
        },
        {
            "bufferView" : 17,
            "componentType" : 5126,
            "count" : 465,
            "max" : [
                0.02144882082939148,
                0.45563510060310364,
                0.2310037910938263
            ],
            "min" : [
                -0.02144882082939148,
                -0.45371222496032715,
                -0.23100343346595764
            ],
            "type" : "VEC3"
        },
        {
            "bufferView" : 18,
            "componentType" : 5126,
            "count" : 465,
            "type" : "VEC3"
        },
        {
            "bufferView" : 19,
            "componentType" : 5126,
            "count" : 465,
            "type" : "VEC2"
        },
        {
            "bufferView" : 20,
            "componentType" : 5123,
            "count" : 1524,
            "type" : "SCALAR"
        },
        {
            "bufferView" : 21,
            "componentType" : 5126,
            "count" : 1440,
            "max" : [
                13.640742301940918,
                -0.7295317649841309,
                -1.3256453275680542
            ],
            "min" : [
                -13.17724895477295,
                -4.055592060089111,
                -17.47233009338379
            ],
            "type" : "VEC3"
        },
        {
            "bufferView" : 22,
            "componentType" : 5126,
            "count" : 1440,
            "type" : "VEC3"
        },
        {
            "bufferView" : 23,
            "componentType" : 5126,
            "count" : 1440,
            "type" : "VEC2"
        },
        {
            "bufferView" : 24,
            "componentType" : 5123,
            "count" : 8616,
            "type" : "SCALAR"
        }
    ],
    "bufferViews" : [
        {
            "buffer" : 0,
            "byteLength" : 1500,
            "byteOffset" : 0
        },
        {
            "buffer" : 0,
            "byteLength" : 1500,
            "byteOffset" : 1500
        },
        {
            "buffer" : 0,
            "byteLength" : 1000,
            "byteOffset" : 3000
        },
        {
            "buffer" : 0,
            "byteLength" : 696,
            "byteOffset" : 4000
        },
        {
            "buffer" : 0,
            "byteLength" : 240,
            "byteOffset" : 4696
        },
        {
            "buffer" : 0,
            "byteLength" : 240,
            "byteOffset" : 4936
        },
        {
            "buffer" : 0,
            "byteLength" : 160,
            "byteOffset" : 5176
        },
        {
            "buffer" : 0,
            "byteLength" : 108,
            "byteOffset" : 5336
        },
        {
            "buffer" : 0,
            "byteLength" : 1500,
            "byteOffset" : 5444
        },
        {
            "buffer" : 0,
            "byteLength" : 1500,
            "byteOffset" : 6944
        },
        {
            "buffer" : 0,
            "byteLength" : 1000,
            "byteOffset" : 8444
        },
        {
            "buffer" : 0,
            "byteLength" : 1500,
            "byteOffset" : 9444
        },
        {
            "buffer" : 0,
            "byteLength" : 1500,
            "byteOffset" : 10944
        },
        {
            "buffer" : 0,
            "byteLength" : 1000,
            "byteOffset" : 12444
        },
        {
            "buffer" : 0,
            "byteLength" : 240,
            "byteOffset" : 13444
        },
        {
            "buffer" : 0,
            "byteLength" : 240,
            "byteOffset" : 13684
        },
        {
            "buffer" : 0,
            "byteLength" : 160,
            "byteOffset" : 13924
        },
        {
            "buffer" : 0,
            "byteLength" : 5580,
            "byteOffset" : 14084
        },
        {
            "buffer" : 0,
            "byteLength" : 5580,
            "byteOffset" : 19664
        },
        {
            "buffer" : 0,
            "byteLength" : 3720,
            "byteOffset" : 25244
        },
        {
            "buffer" : 0,
            "byteLength" : 3048,
            "byteOffset" : 28964
        },
        {
            "buffer" : 0,
            "byteLength" : 17280,
            "byteOffset" : 32012
        },
        {
            "buffer" : 0,
            "byteLength" : 17280,
            "byteOffset" : 49292
        },
        {
            "buffer" : 0,
            "byteLength" : 11520,
            "byteOffset" : 66572
        },
        {
            "buffer" : 0,
            "byteLength" : 17232,
            "byteOffset" : 78092
        }
    ],
    "buffers" : [
        {
            "byteLength" : 95324,
            "uri" : "data:application/octet-stream;base64,"
        }
    ]
}
